<svg xmlns="http://www.w3.org/2000/svg" xmlns:xlink="http://www.w3.org/1999/xlink" width="500" zoomAndPan="magnify" viewBox="0 0 375 374.999991" height="500" preserveAspectRatio="xMidYMid meet" version="1.0"><defs><g/><clipPath id="abeaae7d29"><path d="M 63.996094 60.878906 L 317.496094 60.878906 L 317.496094 314.378906 L 63.996094 314.378906 Z M 63.996094 60.878906 " clip-rule="nonzero"/></clipPath><clipPath id="daee9638f6"><path d="M 72.578125 69.460938 L 308.75 69.460938 L 308.75 305.632812 L 72.578125 305.632812 Z M 72.578125 69.460938 " clip-rule="nonzero"/></clipPath><clipPath id="e817c5c34f"><path d="M 62.21875 59.101562 L 318.820312 59.101562 L 318.820312 315.703125 L 62.21875 315.703125 Z M 62.21875 59.101562 " clip-rule="nonzero"/></clipPath><clipPath id="57d66e55cd"><path d="M 62.21875 62.851562 L 62.21875 312.148438 C 62.21875 313.144531 62.613281 314.097656 63.316406 314.800781 C 64.019531 315.503906 64.972656 315.898438 65.96875 315.898438 L 315.265625 315.898438 C 316.261719 315.898438 317.214844 315.503906 317.917969 314.800781 C 318.621094 314.097656 319.015625 313.144531 319.015625 312.148438 L 319.015625 62.851562 C 319.015625 61.855469 318.621094 60.902344 317.917969 60.199219 C 317.214844 59.496094 316.261719 59.101562 315.265625 59.101562 L 65.96875 59.101562 C 64.972656 59.101562 64.019531 59.496094 63.316406 60.199219 C 62.613281 60.902344 62.21875 61.855469 62.21875 62.851562 Z M 62.21875 62.851562 " clip-rule="nonzero"/></clipPath><clipPath id="91d63351c4"><path d="M 109.160156 109.160156 L 265.839844 109.160156 L 265.839844 265.839844 L 109.160156 265.839844 Z M 109.160156 109.160156 " clip-rule="nonzero"/></clipPath><clipPath id="6cde5f3b62"><path d="M 187.5 109.160156 C 144.234375 109.160156 109.160156 144.234375 109.160156 187.5 C 109.160156 230.765625 144.234375 265.839844 187.5 265.839844 C 230.765625 265.839844 265.839844 230.765625 265.839844 187.5 C 265.839844 144.234375 230.765625 109.160156 187.5 109.160156 Z M 187.5 109.160156 " clip-rule="nonzero"/></clipPath><clipPath id="813d6364d8"><path d="M 136.179688 144.421875 L 235.929688 144.421875 L 235.929688 223.171875 L 136.179688 223.171875 Z M 136.179688 144.421875 " clip-rule="nonzero"/></clipPath><clipPath id="0e870e3f74"><path d="M 113 161 L 149 161 L 149 229 L 113 229 Z M 113 161 " clip-rule="nonzero"/></clipPath><clipPath id="26c33da664"><path d="M 95.136719 207.15625 L 118.097656 156.628906 L 168.625 179.585938 L 145.667969 230.117188 Z M 95.136719 207.15625 " clip-rule="nonzero"/></clipPath><clipPath id="7ef91e7080"><path d="M 95.136719 207.15625 L 118.097656 156.628906 L 168.625 179.585938 L 145.667969 230.117188 Z M 95.136719 207.15625 " clip-rule="nonzero"/></clipPath><clipPath id="b0e3f5e181"><path d="M 121 167 L 129 167 L 129 182 L 121 182 Z M 121 167 " clip-rule="nonzero"/></clipPath><clipPath id="2df6d4e999"><path d="M 95.136719 207.15625 L 118.097656 156.628906 L 168.625 179.585938 L 145.667969 230.117188 Z M 95.136719 207.15625 " clip-rule="nonzero"/></clipPath><clipPath id="0a960dfbf7"><path d="M 95.136719 207.15625 L 118.097656 156.628906 L 168.625 179.585938 L 145.667969 230.117188 Z M 95.136719 207.15625 " clip-rule="nonzero"/></clipPath><clipPath id="fdef2e4fa9"><path d="M 125 165 L 131 165 L 131 175 L 125 175 Z M 125 165 " clip-rule="nonzero"/></clipPath><clipPath id="02d1d1b243"><path d="M 95.136719 207.15625 L 118.097656 156.628906 L 168.625 179.585938 L 145.667969 230.117188 Z M 95.136719 207.15625 " clip-rule="nonzero"/></clipPath><clipPath id="8b27b0feb6"><path d="M 95.136719 207.15625 L 118.097656 156.628906 L 168.625 179.585938 L 145.667969 230.117188 Z M 95.136719 207.15625 " clip-rule="nonzero"/></clipPath><clipPath id="0379285740"><path d="M 116 168 L 123 168 L 123 178 L 116 178 Z M 116 168 " clip-rule="nonzero"/></clipPath><clipPath id="52447e9d72"><path d="M 95.136719 207.15625 L 118.097656 156.628906 L 168.625 179.585938 L 145.667969 230.117188 Z M 95.136719 207.15625 " clip-rule="nonzero"/></clipPath><clipPath id="7d24349372"><path d="M 95.136719 207.15625 L 118.097656 156.628906 L 168.625 179.585938 L 145.667969 230.117188 Z M 95.136719 207.15625 " clip-rule="nonzero"/></clipPath><clipPath id="75573e1c8a"><path d="M 140 220 L 146 220 L 146 226 L 140 226 Z M 140 220 " clip-rule="nonzero"/></clipPath><clipPath id="bc3d3a15e7"><path d="M 95.136719 207.15625 L 118.097656 156.628906 L 168.625 179.585938 L 145.667969 230.117188 Z M 95.136719 207.15625 " clip-rule="nonzero"/></clipPath><clipPath id="ad39d9ef00"><path d="M 95.136719 207.15625 L 118.097656 156.628906 L 168.625 179.585938 L 145.667969 230.117188 Z M 95.136719 207.15625 " clip-rule="nonzero"/></clipPath><clipPath id="d7d79ab540"><path d="M 251 170 L 257 170 L 257 180 L 251 180 Z M 251 170 " clip-rule="nonzero"/></clipPath><clipPath id="02effa149a"><path d="M 205.121094 181.734375 L 254.378906 156.160156 L 279.605469 204.753906 L 230.347656 230.328125 Z M 205.121094 181.734375 " clip-rule="nonzero"/></clipPath><clipPath id="c1127d7789"><path d="M 205.121094 181.734375 L 254.378906 156.160156 L 279.605469 204.753906 L 230.347656 230.328125 Z M 205.121094 181.734375 " clip-rule="nonzero"/></clipPath><clipPath id="7e980f8243"><path d="M 240 167 L 246 167 L 246 176 L 240 176 Z M 240 167 " clip-rule="nonzero"/></clipPath><clipPath id="078a0effe4"><path d="M 205.121094 181.734375 L 254.378906 156.160156 L 279.605469 204.753906 L 230.347656 230.328125 Z M 205.121094 181.734375 " clip-rule="nonzero"/></clipPath><clipPath id="018f7e5c9f"><path d="M 205.121094 181.734375 L 254.378906 156.160156 L 279.605469 204.753906 L 230.347656 230.328125 Z M 205.121094 181.734375 " clip-rule="nonzero"/></clipPath><clipPath id="8f64f3a3d3"><path d="M 230 220 L 236 220 L 236 226 L 230 226 Z M 230 220 " clip-rule="nonzero"/></clipPath><clipPath id="ebcff6b796"><path d="M 205.121094 181.734375 L 254.378906 156.160156 L 279.605469 204.753906 L 230.347656 230.328125 Z M 205.121094 181.734375 " clip-rule="nonzero"/></clipPath><clipPath id="b8522a8228"><path d="M 205.121094 181.734375 L 254.378906 156.160156 L 279.605469 204.753906 L 230.347656 230.328125 Z M 205.121094 181.734375 " clip-rule="nonzero"/></clipPath><clipPath id="97649b29e8"><path d="M 227 161 L 261 161 L 261 229 L 227 229 Z M 227 161 " clip-rule="nonzero"/></clipPath><clipPath id="5fad70bd82"><path d="M 205.121094 181.734375 L 254.378906 156.160156 L 279.605469 204.753906 L 230.347656 230.328125 Z M 205.121094 181.734375 " clip-rule="nonzero"/></clipPath><clipPath id="e9fea1e107"><path d="M 205.121094 181.734375 L 254.378906 156.160156 L 279.605469 204.753906 L 230.347656 230.328125 Z M 205.121094 181.734375 " clip-rule="nonzero"/></clipPath><clipPath id="6854aaacec"><path d="M 244 166 L 253 166 L 253 181 L 244 181 Z M 244 166 " clip-rule="nonzero"/></clipPath><clipPath id="1ad2853048"><path d="M 205.121094 181.734375 L 254.378906 156.160156 L 279.605469 204.753906 L 230.347656 230.328125 Z M 205.121094 181.734375 " clip-rule="nonzero"/></clipPath><clipPath id="82ae0d8f1b"><path d="M 205.121094 181.734375 L 254.378906 156.160156 L 279.605469 204.753906 L 230.347656 230.328125 Z M 205.121094 181.734375 " clip-rule="nonzero"/></clipPath><clipPath id="3960b03ac0"><path d="M 85.191406 184.570312 L 94.941406 184.570312 L 94.941406 194.320312 L 85.191406 194.320312 Z M 85.191406 184.570312 " clip-rule="nonzero"/></clipPath><clipPath id="ea0f44a1e0"><path d="M 285.960938 184.570312 L 295.710938 184.570312 L 295.710938 194.320312 L 285.960938 194.320312 Z M 285.960938 184.570312 " clip-rule="nonzero"/></clipPath></defs><g clip-path="url(#abeaae7d29)"><path fill="#ffffff" d="M 317.496094 187.628906 C 317.496094 189.703125 317.445312 191.773438 317.339844 193.847656 C 317.238281 195.917969 317.085938 197.988281 316.882812 200.050781 C 316.679688 202.117188 316.425781 204.171875 316.121094 206.226562 C 315.816406 208.277344 315.464844 210.320312 315.058594 212.355469 C 314.652344 214.390625 314.199219 216.414062 313.695312 218.425781 C 313.191406 220.4375 312.636719 222.4375 312.035156 224.421875 C 311.433594 226.40625 310.785156 228.375 310.085938 230.328125 C 309.386719 232.28125 308.640625 234.214844 307.847656 236.132812 C 307.050781 238.050781 306.210938 239.945312 305.324219 241.820312 C 304.4375 243.695312 303.503906 245.546875 302.527344 247.375 C 301.550781 249.207031 300.527344 251.011719 299.460938 252.789062 C 298.394531 254.570312 297.285156 256.320312 296.132812 258.046875 C 294.980469 259.769531 293.785156 261.464844 292.550781 263.132812 C 291.316406 264.796875 290.039062 266.433594 288.722656 268.035156 C 287.40625 269.640625 286.054688 271.210938 284.660156 272.746094 C 283.265625 274.285156 281.835938 275.785156 280.371094 277.253906 C 278.902344 278.71875 277.402344 280.148438 275.863281 281.542969 C 274.328125 282.9375 272.757812 284.289062 271.152344 285.605469 C 269.550781 286.921875 267.914062 288.199219 266.25 289.433594 C 264.582031 290.667969 262.886719 291.863281 261.164062 293.015625 C 259.4375 294.167969 257.6875 295.277344 255.90625 296.34375 C 254.128906 297.410156 252.324219 298.433594 250.492188 299.410156 C 248.664062 300.386719 246.8125 301.320312 244.9375 302.207031 C 243.0625 303.09375 241.164062 303.933594 239.25 304.730469 C 237.332031 305.523438 235.398438 306.269531 233.445312 306.96875 C 231.492188 307.667969 229.523438 308.316406 227.539062 308.917969 C 225.554688 309.523438 223.554688 310.074219 221.542969 310.578125 C 219.53125 311.082031 217.507812 311.535156 215.472656 311.941406 C 213.4375 312.347656 211.394531 312.699219 209.34375 313.003906 C 207.289062 313.308594 205.230469 313.5625 203.167969 313.765625 C 201.105469 313.96875 199.035156 314.121094 196.964844 314.222656 C 194.890625 314.328125 192.820312 314.378906 190.746094 314.378906 C 188.671875 314.378906 186.597656 314.328125 184.523438 314.226562 C 182.453125 314.121094 180.386719 313.96875 178.320312 313.765625 C 176.257812 313.5625 174.199219 313.308594 172.144531 313.003906 C 170.09375 312.699219 168.050781 312.347656 166.015625 311.941406 C 163.980469 311.535156 161.957031 311.082031 159.945312 310.578125 C 157.933594 310.074219 155.9375 309.523438 153.949219 308.917969 C 151.964844 308.316406 149.996094 307.667969 148.042969 306.96875 C 146.089844 306.269531 144.15625 305.523438 142.238281 304.730469 C 140.324219 303.933594 138.425781 303.09375 136.550781 302.207031 C 134.675781 301.320312 132.824219 300.386719 130.996094 299.410156 C 129.164062 298.433594 127.359375 297.410156 125.582031 296.34375 C 123.800781 295.277344 122.050781 294.167969 120.324219 293.015625 C 118.601562 291.863281 116.90625 290.667969 115.238281 289.433594 C 113.574219 288.199219 111.9375 286.921875 110.335938 285.605469 C 108.730469 284.289062 107.160156 282.9375 105.625 281.542969 C 104.085938 280.148438 102.585938 278.71875 101.117188 277.253906 C 99.652344 275.785156 98.222656 274.285156 96.828125 272.746094 C 95.4375 271.210938 94.082031 269.640625 92.765625 268.035156 C 91.449219 266.433594 90.171875 264.796875 88.9375 263.132812 C 87.703125 261.464844 86.507812 259.769531 85.355469 258.046875 C 84.203125 256.320312 83.09375 254.570312 82.027344 252.789062 C 80.960938 251.011719 79.9375 249.207031 78.960938 247.375 C 77.984375 245.546875 77.050781 243.695312 76.164062 241.820312 C 75.277344 239.945312 74.4375 238.050781 73.640625 236.132812 C 72.847656 234.214844 72.101562 232.28125 71.402344 230.328125 C 70.703125 228.375 70.054688 226.40625 69.453125 224.421875 C 68.851562 222.4375 68.296875 220.4375 67.792969 218.425781 C 67.289062 216.414062 66.835938 214.390625 66.429688 212.355469 C 66.023438 210.320312 65.671875 208.277344 65.367188 206.226562 C 65.0625 204.171875 64.808594 202.117188 64.605469 200.050781 C 64.402344 197.988281 64.25 195.917969 64.148438 193.847656 C 64.046875 191.773438 63.996094 189.703125 63.996094 187.628906 C 63.996094 185.554688 64.046875 183.480469 64.148438 181.40625 C 64.25 179.335938 64.402344 177.269531 64.605469 175.203125 C 64.808594 173.140625 65.0625 171.082031 65.367188 169.027344 C 65.671875 166.976562 66.023438 164.933594 66.429688 162.898438 C 66.835938 160.863281 67.289062 158.839844 67.792969 156.828125 C 68.296875 154.816406 68.851562 152.820312 69.453125 150.832031 C 70.054688 148.847656 70.703125 146.878906 71.402344 144.925781 C 72.101562 142.972656 72.847656 141.039062 73.640625 139.121094 C 74.4375 137.207031 75.277344 135.308594 76.164062 133.433594 C 77.050781 131.558594 77.984375 129.707031 78.960938 127.878906 C 79.9375 126.046875 80.960938 124.242188 82.027344 122.464844 C 83.09375 120.683594 84.203125 118.933594 85.355469 117.207031 C 86.507812 115.484375 87.703125 113.789062 88.9375 112.121094 C 90.171875 110.457031 91.449219 108.820312 92.765625 107.21875 C 94.082031 105.613281 95.4375 104.042969 96.828125 102.507812 C 98.222656 100.96875 99.652344 99.46875 101.117188 98 C 102.585938 96.535156 104.085938 95.105469 105.625 93.710938 C 107.160156 92.320312 108.730469 90.964844 110.335938 89.648438 C 111.9375 88.332031 113.574219 87.054688 115.238281 85.820312 C 116.90625 84.585938 118.601562 83.390625 120.324219 82.238281 C 122.050781 81.085938 123.800781 79.976562 125.582031 78.910156 C 127.359375 77.84375 129.164062 76.820312 130.996094 75.84375 C 132.824219 74.867188 134.675781 73.933594 136.550781 73.046875 C 138.425781 72.160156 140.324219 71.320312 142.238281 70.527344 C 144.15625 69.730469 146.089844 68.984375 148.042969 68.285156 C 149.996094 67.585938 151.964844 66.9375 153.949219 66.335938 C 155.9375 65.734375 157.933594 65.179688 159.945312 64.675781 C 161.957031 64.171875 163.980469 63.71875 166.015625 63.3125 C 168.050781 62.90625 170.09375 62.554688 172.144531 62.25 C 174.199219 61.945312 176.257812 61.691406 178.320312 61.488281 C 180.386719 61.285156 182.453125 61.132812 184.523438 61.03125 C 186.597656 60.929688 188.671875 60.878906 190.746094 60.878906 C 192.820312 60.878906 194.890625 60.929688 196.964844 61.03125 C 199.035156 61.132812 201.105469 61.285156 203.167969 61.488281 C 205.230469 61.691406 207.289062 61.945312 209.34375 62.25 C 211.394531 62.554688 213.4375 62.90625 215.472656 63.3125 C 217.507812 63.71875 219.53125 64.171875 221.542969 64.675781 C 223.554688 65.179688 225.554688 65.734375 227.539062 66.335938 C 229.523438 66.9375 231.492188 67.585938 233.445312 68.285156 C 235.398438 68.984375 237.332031 69.730469 239.25 70.527344 C 241.164062 71.320312 243.0625 72.160156 244.9375 73.046875 C 246.8125 73.933594 248.664062 74.867188 250.492188 75.84375 C 252.324219 76.820312 254.128906 77.84375 255.90625 78.910156 C 257.6875 79.976562 259.4375 81.085938 261.164062 82.238281 C 262.886719 83.390625 264.582031 84.585938 266.25 85.820312 C 267.914062 87.054688 269.550781 88.332031 271.152344 89.648438 C 272.757812 90.964844 274.328125 92.320312 275.863281 93.710938 C 277.402344 95.105469 278.902344 96.535156 280.371094 98 C 281.835938 99.46875 283.265625 100.96875 284.660156 102.507812 C 286.054688 104.042969 287.40625 105.613281 288.722656 107.21875 C 290.039062 108.820312 291.316406 110.457031 292.550781 112.121094 C 293.785156 113.789062 294.980469 115.484375 296.132812 117.207031 C 297.285156 118.933594 298.394531 120.683594 299.460938 122.464844 C 300.527344 124.242188 301.550781 126.046875 302.527344 127.878906 C 303.503906 129.707031 304.4375 131.558594 305.324219 133.433594 C 306.210938 135.308594 307.050781 137.207031 307.847656 139.121094 C 308.640625 141.039062 309.386719 142.972656 310.085938 144.925781 C 310.785156 146.878906 311.433594 148.847656 312.035156 150.832031 C 312.636719 152.820312 313.191406 154.816406 313.695312 156.828125 C 314.199219 158.839844 314.652344 160.863281 315.058594 162.898438 C 315.464844 164.933594 315.816406 166.976562 316.121094 169.027344 C 316.425781 171.082031 316.679688 173.140625 316.882812 175.203125 C 317.085938 177.269531 317.238281 179.335938 317.339844 181.40625 C 317.445312 183.480469 317.496094 185.554688 317.496094 187.628906 Z M 317.496094 187.628906 " fill-opacity="1" fill-rule="nonzero"/></g><g clip-path="url(#daee9638f6)"><path fill="#fe9f04" d="M 190.613281 305.53125 C 125.546875 305.53125 72.578125 252.558594 72.578125 187.496094 C 72.578125 122.429688 125.546875 69.460938 190.613281 69.460938 C 255.675781 69.460938 308.648438 122.429688 308.648438 187.496094 C 308.648438 252.558594 255.675781 305.53125 190.613281 305.53125 Z M 190.613281 71.203125 C 126.476562 71.203125 74.320312 123.359375 74.320312 187.496094 C 74.320312 251.628906 126.476562 303.785156 190.613281 303.785156 C 254.746094 303.785156 306.902344 251.628906 306.902344 187.496094 C 306.902344 123.359375 254.746094 71.203125 190.613281 71.203125 Z M 190.613281 71.203125 " fill-opacity="1" fill-rule="nonzero"/></g><g clip-path="url(#e817c5c34f)"><g clip-path="url(#57d66e55cd)"><path fill="#7b571d" d="M 190.613281 315.894531 C 119.839844 315.894531 62.21875 258.273438 62.21875 187.496094 C 62.21875 116.722656 119.839844 59.101562 190.613281 59.101562 C 261.390625 59.101562 319.011719 116.722656 319.011719 187.496094 C 319.011719 258.273438 261.390625 315.894531 190.613281 315.894531 Z M 190.613281 61 C 120.851562 61 64.113281 117.734375 64.113281 187.496094 C 64.113281 257.261719 120.851562 313.996094 190.613281 313.996094 C 260.378906 313.996094 317.113281 257.261719 317.113281 187.496094 C 317.113281 117.734375 260.378906 61 190.613281 61 Z M 190.613281 61 " fill-opacity="1" fill-rule="nonzero"/></g></g><g fill="#c18f3e" fill-opacity="1"><g transform="translate(123.704748, 128.766326)"><g><path d="M 1.625 -9.21875 L -7.765625 -19.8125 C -8.429688 -20.5625 -8.234375 -21.40625 -7.171875 -22.34375 C -5.960938 -23.414062 -4.742188 -23.929688 -3.515625 -23.890625 C -2.285156 -23.859375 -1.222656 -23.34375 -0.328125 -22.34375 C 0.597656 -21.300781 1.039062 -20.195312 1 -19.03125 C 0.96875 -17.875 0.414062 -16.820312 -0.65625 -15.875 C -0.925781 -15.632812 -1.203125 -15.425781 -1.484375 -15.25 C -1.765625 -15.070312 -1.925781 -14.960938 -1.96875 -14.921875 C -2.1875 -14.734375 -2.175781 -14.503906 -1.9375 -14.234375 C -1.726562 -13.992188 -1.453125 -13.921875 -1.109375 -14.015625 C -0.441406 -14.234375 0.175781 -14.597656 0.75 -15.109375 C 1.875 -16.109375 3.0625 -16.59375 4.3125 -16.5625 C 5.5625 -16.53125 6.59375 -16.054688 7.40625 -15.140625 C 8.351562 -14.078125 8.800781 -12.9375 8.75 -11.71875 C 8.695312 -10.507812 8.113281 -9.410156 7 -8.421875 C 6.695312 -8.148438 6.40625 -7.929688 6.125 -7.765625 C 5.84375 -7.609375 5.46875 -7.484375 5 -7.390625 C 4.53125 -7.296875 4.003906 -7.398438 3.421875 -7.703125 C 2.847656 -8.015625 2.25 -8.519531 1.625 -9.21875 Z M 7.984375 -7.078125 C 12.066406 -10.710938 12.722656 -14.085938 9.953125 -17.203125 C 9.191406 -18.054688 8.195312 -18.570312 6.96875 -18.75 C 5.75 -18.925781 4.46875 -18.726562 3.125 -18.15625 C 4.070312 -20.414062 3.679688 -22.515625 1.953125 -24.453125 C 0.734375 -25.828125 -0.78125 -26.484375 -2.59375 -26.421875 C -4.40625 -26.359375 -6.398438 -25.359375 -8.578125 -23.421875 C -9.585938 -22.523438 -10.550781 -21.476562 -11.46875 -20.28125 C -12.382812 -19.09375 -13.070312 -18.050781 -13.53125 -17.15625 L -12.453125 -16.5 L -11.078125 -17.71875 C -10.734375 -18.019531 -10.398438 -17.992188 -10.078125 -17.640625 L 0.328125 -5.90625 C 0.984375 -5.175781 1.332031 -4.585938 1.375 -4.140625 C 1.414062 -3.703125 1.210938 -3.117188 0.765625 -2.390625 L 0.328125 -1.75 L 1.359375 -1.203125 Z M 7.984375 -7.078125 "/></g></g></g><g fill="#c18f3e" fill-opacity="1"><g transform="translate(136.748245, 116.567724)"><g><path d="M -1.328125 -11.890625 C -2.734375 -14.472656 -3.335938 -16.945312 -3.140625 -19.3125 C -2.953125 -21.675781 -1.875 -23.394531 0.09375 -24.46875 C 1.207031 -25.070312 2.34375 -25.304688 3.5 -25.171875 C 4.65625 -25.035156 5.703125 -24.613281 6.640625 -23.90625 C 7.578125 -23.195312 8.410156 -22.410156 9.140625 -21.546875 C 9.878906 -20.691406 10.507812 -19.785156 11.03125 -18.828125 C 12.375 -16.367188 12.921875 -14.003906 12.671875 -11.734375 C 12.429688 -9.460938 11.332031 -7.789062 9.375 -6.71875 C 7.4375 -5.664062 5.503906 -5.648438 3.578125 -6.671875 C 1.648438 -7.691406 0.015625 -9.429688 -1.328125 -11.890625 Z M 15.65625 -11.796875 C 16.1875 -14.597656 15.625 -17.519531 13.96875 -20.5625 C 12.3125 -23.601562 10.160156 -25.664062 7.515625 -26.75 C 4.867188 -27.832031 2.054688 -27.554688 -0.921875 -25.921875 C -3.910156 -24.296875 -5.660156 -22.078125 -6.171875 -19.265625 C -6.679688 -16.460938 -6.109375 -13.539062 -4.453125 -10.5 C -2.796875 -7.457031 -0.65625 -5.398438 1.96875 -4.328125 C 4.59375 -3.253906 7.394531 -3.53125 10.375 -5.15625 C 13.363281 -6.789062 15.125 -9.003906 15.65625 -11.796875 Z M 15.65625 -11.796875 "/></g></g></g><g fill="#c18f3e" fill-opacity="1"><g transform="translate(154.26833, 106.481051)"><g><path d="M 7.25 -1.859375 L 7.515625 -2.46875 L 6.984375 -2.921875 C 6.296875 -3.460938 5.757812 -4.070312 5.375 -4.75 C 4.988281 -5.4375 4.632812 -6.410156 4.3125 -7.671875 L 1.421875 -18.890625 L 17.578125 -4.53125 L 20.6875 -5.328125 L 20.921875 -5.921875 L 20.421875 -6.390625 C 20.003906 -6.742188 19.707031 -7.25 19.53125 -7.90625 L 16.140625 -21.09375 C 15.578125 -23.28125 15.585938 -25.09375 16.171875 -26.53125 L 16.5 -27.21875 L 15.90625 -27.59375 L 10.15625 -26.125 L 9.984375 -24.953125 L 10.75 -24.96875 C 11.601562 -24.945312 12.210938 -24.785156 12.578125 -24.484375 C 12.941406 -24.179688 13.242188 -23.5625 13.484375 -22.625 L 16.921875 -9.28125 L 0.6875 -23.6875 L -4.25 -22.40625 L -4.34375 -21.25 L -3.609375 -21.28125 C -2.773438 -21.25 -2.175781 -21.082031 -1.8125 -20.78125 C -1.457031 -20.476562 -1.160156 -19.859375 -0.921875 -18.921875 L 2.65625 -5.03125 C 2.894531 -4.070312 2.9375 -3.382812 2.78125 -2.96875 C 2.625 -2.5625 2.175781 -2.128906 1.4375 -1.671875 L 0.796875 -1.328125 L 1.421875 -0.359375 Z M 7.25 -1.859375 "/></g></g></g><g fill="#c18f3e" fill-opacity="1"><g transform="translate(176.006763, 101.321473)"><g/></g></g><g fill="#c18f3e" fill-opacity="1"><g transform="translate(185.107757, 100.45027)"><g><path d="M 12.25 -6.71875 L 12.8125 -15.625 C 12.957031 -17.914062 13.523438 -19.632812 14.515625 -20.78125 L 15 -21.328125 L 14.578125 -21.875 L 7.6875 -22.3125 L 7.25 -21.25 L 7.953125 -21.03125 C 8.765625 -20.75 9.289062 -20.40625 9.53125 -20 C 9.78125 -19.601562 9.875 -18.929688 9.8125 -17.984375 L 8.984375 -5.015625 C 8.796875 -2.109375 7.597656 -0.722656 5.390625 -0.859375 C 4.503906 -0.921875 3.828125 -1.25 3.359375 -1.84375 C 2.890625 -2.445312 2.679688 -3.164062 2.734375 -4 C 2.773438 -4.65625 2.9375 -5.226562 3.21875 -5.71875 C 3.5 -6.207031 3.773438 -6.570312 4.046875 -6.8125 C 4.328125 -7.0625 4.46875 -7.234375 4.46875 -7.328125 C 4.488281 -7.554688 4.300781 -7.679688 3.90625 -7.703125 C 2.644531 -7.785156 1.632812 -7.46875 0.875 -6.75 C 0.125 -6.039062 -0.28125 -5.164062 -0.34375 -4.125 C -0.425781 -2.894531 0 -1.800781 0.9375 -0.84375 C 1.882812 0.113281 3.265625 0.648438 5.078125 0.765625 C 9.515625 1.046875 11.90625 -1.445312 12.25 -6.71875 Z M 12.25 -6.71875 "/></g></g></g><g fill="#c18f3e" fill-opacity="1"><g transform="translate(197.59646, 100.603395)"><g><path d="M 7.25 -9.53125 C 8.007812 -12.363281 9.269531 -14.570312 11.03125 -16.15625 C 12.800781 -17.75 14.765625 -18.253906 16.921875 -17.671875 C 18.148438 -17.347656 19.132812 -16.738281 19.875 -15.84375 C 20.625 -14.945312 21.097656 -13.914062 21.296875 -12.75 C 21.492188 -11.59375 21.554688 -10.445312 21.484375 -9.3125 C 21.421875 -8.1875 21.25 -7.097656 20.96875 -6.046875 C 20.238281 -3.335938 19.003906 -1.242188 17.265625 0.234375 C 15.523438 1.710938 13.578125 2.164062 11.421875 1.59375 C 9.285156 1.019531 7.875 -0.296875 7.1875 -2.359375 C 6.507812 -4.429688 6.53125 -6.820312 7.25 -9.53125 Z M 19.484375 2.234375 C 21.796875 0.578125 23.394531 -1.921875 24.28125 -5.265625 C 25.175781 -8.609375 25.035156 -11.582031 23.859375 -14.1875 C 22.691406 -16.800781 20.46875 -18.546875 17.1875 -19.421875 C 13.90625 -20.304688 11.113281 -19.90625 8.8125 -18.21875 C 6.507812 -16.53125 4.910156 -14.015625 4.015625 -10.671875 C 3.128906 -7.328125 3.265625 -4.363281 4.421875 -1.78125 C 5.585938 0.800781 7.8125 2.53125 11.09375 3.40625 C 14.375 4.289062 17.171875 3.898438 19.484375 2.234375 Z M 19.484375 2.234375 "/></g></g></g><g fill="#c18f3e" fill-opacity="1"><g transform="translate(217.278262, 105.47785)"><g><path d="M 20.90625 3.5625 L 25.453125 -4.734375 C 26.554688 -6.734375 27.816406 -8.046875 29.234375 -8.671875 L 29.875 -8.96875 L 29.765625 -9.625 L 24.5 -12.515625 L 23.609375 -11.765625 L 24.1875 -11.25 C 24.789062 -10.65625 25.113281 -10.125 25.15625 -9.65625 C 25.207031 -9.195312 25.003906 -8.546875 24.546875 -7.703125 L 18.953125 2.484375 C 18.148438 3.941406 17.054688 4.832031 15.671875 5.15625 C 14.296875 5.488281 12.910156 5.273438 11.515625 4.515625 C 10.097656 3.734375 9.15625 2.671875 8.6875 1.328125 C 8.21875 -0.015625 8.382812 -1.414062 9.1875 -2.875 L 13.734375 -11.171875 C 14.828125 -13.160156 16.078125 -14.476562 17.484375 -15.125 L 18.140625 -15.421875 L 18.015625 -16.078125 L 11.96875 -19.390625 L 11.046875 -18.65625 L 11.65625 -18.125 C 12.257812 -17.53125 12.582031 -17 12.625 -16.53125 C 12.675781 -16.070312 12.472656 -15.421875 12.015625 -14.578125 L 6.421875 -4.390625 C 5.222656 -2.222656 5.007812 -0.234375 5.78125 1.578125 C 6.550781 3.398438 8.019531 4.90625 10.1875 6.09375 C 12.320312 7.269531 14.34375 7.679688 16.25 7.328125 C 18.164062 6.972656 19.71875 5.71875 20.90625 3.5625 Z M 20.90625 3.5625 "/></g></g></g><g fill="#c18f3e" fill-opacity="1"><g transform="translate(235.426221, 115.27965)"><g><path d="M 15.265625 12.484375 L 15.46875 11.421875 C 14.96875 11.390625 14.5625 11.238281 14.25 10.96875 C 13.863281 10.613281 13.773438 10.101562 13.984375 9.4375 L 15.796875 3 C 15.960938 2.34375 15.976562 1.664062 15.84375 0.96875 C 17.300781 1.757812 18.742188 2.03125 20.171875 1.78125 C 21.597656 1.539062 22.859375 0.804688 23.953125 -0.421875 C 25.410156 -2.054688 25.941406 -3.867188 25.546875 -5.859375 C 25.148438 -7.847656 23.863281 -9.8125 21.6875 -11.75 C 20.769531 -12.570312 19.65625 -13.378906 18.34375 -14.171875 C 17.039062 -14.972656 15.882812 -15.566406 14.875 -15.953125 L 14.375 -14.796875 L 15.71875 -13.59375 C 16.0625 -13.289062 16.078125 -12.957031 15.765625 -12.59375 L 5.328125 -0.890625 C 4.691406 -0.171875 4.132812 0.242188 3.65625 0.359375 C 3.1875 0.472656 2.59375 0.347656 1.875 -0.015625 L 1.1875 -0.40625 L 0.765625 0.6875 L 5.953125 5.296875 L 6.59375 5.1875 L 6.6875 4.484375 C 6.757812 3.554688 6.96875 2.738281 7.3125 2.03125 C 7.664062 1.332031 8.257812 0.515625 9.09375 -0.421875 L 18.140625 -10.578125 C 18.804688 -11.328125 19.75 -11.15625 20.96875 -10.0625 C 22.195312 -8.976562 22.847656 -7.75 22.921875 -6.375 C 23.003906 -5.007812 22.507812 -3.722656 21.4375 -2.515625 C 20.414062 -1.378906 19.273438 -0.785156 18.015625 -0.734375 C 16.753906 -0.679688 15.546875 -1.175781 14.390625 -2.21875 C 14.097656 -2.46875 13.863281 -2.71875 13.6875 -2.96875 C 13.507812 -3.21875 13.410156 -3.347656 13.390625 -3.359375 C 13.128906 -3.585938 12.84375 -3.519531 12.53125 -3.15625 C 12.3125 -2.914062 12.28125 -2.59375 12.4375 -2.1875 C 12.8125 -1.507812 13.03125 -1.015625 13.09375 -0.703125 C 13.164062 -0.390625 13.144531 -0.0234375 13.03125 0.390625 L 11.453125 5.796875 C 10.992188 7.265625 10.820312 8.414062 10.9375 9.25 C 11.050781 10.082031 11.472656 10.820312 12.203125 11.46875 C 12.972656 12.144531 13.992188 12.484375 15.265625 12.484375 Z M 15.265625 12.484375 "/></g></g></g><g fill="#c18f3e" fill-opacity="1"><g transform="translate(83.322844, 200.615803)"><g><path d="M 1.734375 7.1875 L 2.25 7.40625 L 2.640625 6.96875 C 3.109375 6.375 3.640625 5.910156 4.234375 5.578125 C 4.828125 5.253906 5.664062 4.960938 6.75 4.703125 L 18.078125 1.953125 C 18.921875 1.753906 19.503906 2.316406 19.828125 3.640625 C 20.171875 5.066406 19.972656 6.285156 19.234375 7.296875 C 18.503906 8.304688 17.414062 8.984375 15.96875 9.328125 C 14.550781 9.671875 13.328125 9.578125 12.296875 9.046875 C 11.265625 8.515625 10.585938 7.585938 10.265625 6.265625 C 10.191406 5.960938 10.15625 5.671875 10.15625 5.390625 C 10.15625 5.117188 10.148438 4.960938 10.140625 4.921875 C 10.066406 4.640625 9.816406 4.550781 9.390625 4.65625 C 9.097656 4.726562 8.925781 5.015625 8.875 5.515625 C 8.832031 6.015625 8.890625 6.582031 9.046875 7.21875 C 9.546875 9.28125 10.515625 10.707031 11.953125 11.5 C 13.390625 12.289062 14.992188 12.46875 16.765625 12.03125 C 18.609375 11.582031 19.957031 10.585938 20.8125 9.046875 C 21.664062 7.503906 21.78125 5.429688 21.15625 2.828125 C 20.582031 0.484375 19.660156 -1.613281 18.390625 -3.46875 L 17.484375 -2.890625 L 17.84375 -1.390625 C 17.9375 -0.992188 17.78125 -0.75 17.375 -0.65625 L 4.328125 2.515625 C 3.523438 2.703125 2.925781 2.722656 2.53125 2.578125 C 2.144531 2.429688 1.785156 2.050781 1.453125 1.4375 L 1.15625 0.828125 L 0.328125 1.359375 Z M 1.734375 7.1875 "/></g></g></g><g fill="#c18f3e" fill-opacity="1"><g transform="translate(87.7174, 217.489803)"><g><path d="M 2.90625 7.546875 L 3.8125 7.46875 L 3.765625 6.90625 C 3.691406 6.21875 3.757812 5.71875 3.96875 5.40625 C 4.175781 5.101562 4.648438 4.804688 5.390625 4.515625 L 15.328125 0.703125 C 17.148438 -0.00390625 18.707031 -0.164062 20 0.21875 L 20.59375 0.375 L 20.875 -0.109375 L 18.71875 -5.6875 L 17.734375 -5.671875 L 17.8125 -4.984375 C 17.882812 -4.296875 17.804688 -3.78125 17.578125 -3.4375 C 17.347656 -3.101562 16.847656 -2.789062 16.078125 -2.5 L 4.609375 1.921875 C 3.816406 2.222656 3.234375 2.328125 2.859375 2.234375 C 2.492188 2.140625 2.082031 1.804688 1.625 1.234375 L 1.265625 0.65625 L 0.5 1.3125 Z M 2.90625 7.546875 "/></g></g></g><g fill="#c18f3e" fill-opacity="1"><g transform="translate(91.413385, 228.014049)"><g><path d="M 3.203125 5.5625 L 3.75 5.640625 L 4.015625 5.09375 C 4.296875 4.414062 4.675781 3.835938 5.15625 3.359375 C 5.644531 2.878906 6.375 2.363281 7.34375 1.8125 L 15.9375 -3.140625 L 7.765625 13.484375 L 9.125 15.875 L 9.671875 15.9375 L 9.9375 15.40625 C 10.144531 14.96875 10.5 14.601562 11 14.3125 L 21.109375 8.5 C 22.785156 7.539062 24.296875 7.140625 25.640625 7.296875 L 26.265625 7.40625 L 26.453125 6.828125 L 23.90625 2.40625 L 22.90625 2.546875 L 23.078125 3.171875 C 23.265625 3.878906 23.273438 4.414062 23.109375 4.78125 C 22.941406 5.15625 22.5 5.546875 21.78125 5.953125 L 11.5625 11.84375 L 19.734375 -4.859375 L 17.546875 -8.640625 L 16.578125 -8.453125 L 16.734375 -7.84375 C 16.910156 -7.15625 16.914062 -6.625 16.75 -6.25 C 16.582031 -5.882812 16.140625 -5.5 15.421875 -5.09375 L 4.765625 1.046875 C 4.035156 1.460938 3.476562 1.648438 3.09375 1.609375 C 2.707031 1.578125 2.242188 1.3125 1.703125 0.8125 L 1.28125 0.34375 L 0.625 1.09375 Z M 3.203125 5.5625 "/></g></g></g><g fill="#c18f3e" fill-opacity="1"><g transform="translate(103.234007, 247.998717)"><g><path d="M 9.6875 -3.421875 C 11.550781 -5.085938 13.488281 -6.070312 15.5 -6.375 C 17.507812 -6.6875 19.15625 -6.125 20.4375 -4.6875 C 21.164062 -3.875 21.585938 -2.972656 21.703125 -1.984375 C 21.816406 -0.992188 21.664062 -0.0390625 21.25 0.875 C 20.84375 1.800781 20.347656 2.648438 19.765625 3.421875 C 19.191406 4.203125 18.554688 4.90625 17.859375 5.53125 C 16.066406 7.132812 14.195312 8.054688 12.25 8.296875 C 10.3125 8.546875 8.703125 7.957031 7.421875 6.53125 C 6.160156 5.113281 5.769531 3.5 6.25 1.6875 C 6.738281 -0.113281 7.882812 -1.816406 9.6875 -3.421875 Z M 12.890625 10.765625 C 15.335938 10.671875 17.664062 9.632812 19.875 7.65625 C 22.09375 5.675781 23.394531 3.472656 23.78125 1.046875 C 24.164062 -1.367188 23.390625 -3.660156 21.453125 -5.828125 C 19.515625 -8.003906 17.320312 -9.03125 14.875 -8.90625 C 12.4375 -8.789062 10.109375 -7.742188 7.890625 -5.765625 C 5.679688 -3.785156 4.382812 -1.597656 4 0.796875 C 3.613281 3.203125 4.390625 5.488281 6.328125 7.65625 C 8.265625 9.832031 10.453125 10.867188 12.890625 10.765625 Z M 12.890625 10.765625 "/></g></g></g><g fill="#c18f3e" fill-opacity="1"><g transform="translate(117.932601, 264.011369)"><g><path d="M 9.390625 7.234375 L 10.234375 6.6875 L 9.859375 6.21875 C 9.398438 5.65625 9.175781 5.160156 9.1875 4.734375 C 9.195312 4.304688 9.453125 3.765625 9.953125 3.109375 L 12.78125 -0.546875 L 20.6875 -3.875 C 21.789062 -4.351562 22.882812 -4.722656 23.96875 -4.984375 L 24.5625 -5.15625 L 24.578125 -5.6875 L 20.46875 -8.859375 L 19.671875 -8.296875 L 20.046875 -7.8125 C 20.535156 -7.207031 20.546875 -6.601562 20.078125 -6 C 19.890625 -5.75 19.570312 -5.515625 19.125 -5.296875 L 13.359375 -2.796875 L 14.171875 -8.6875 C 14.253906 -9.726562 14.375 -10.351562 14.53125 -10.5625 C 14.914062 -11.050781 15.492188 -11.109375 16.265625 -10.734375 L 16.828125 -10.5 L 17.15625 -11.40625 L 12.28125 -15.171875 L 11.734375 -15.03125 C 12.035156 -13.96875 12.054688 -12.507812 11.796875 -10.65625 L 10.578125 -1.953125 L 9.03125 0.078125 C 8.375 0.921875 7.769531 1.546875 7.21875 1.953125 C 6.664062 2.359375 6.015625 2.660156 5.265625 2.859375 L 4.671875 3.046875 L 4.6875 3.609375 Z M 9.390625 7.234375 "/></g></g></g><g fill="#c18f3e" fill-opacity="1"><g transform="translate(132.620576, 274.897335)"><g/></g></g><g fill="#c18f3e" fill-opacity="1"><g transform="translate(141.704812, 280.360261)"><g><path d="M 15.90625 5.78125 L 15.75 4.84375 C 15.332031 4.957031 14.960938 4.945312 14.640625 4.8125 C 14.222656 4.644531 14.003906 4.257812 13.984375 3.65625 L 13.625 -2.0625 C 13.570312 -2.632812 13.394531 -3.1875 13.09375 -3.71875 C 14.5 -3.488281 15.742188 -3.675781 16.828125 -4.28125 C 17.910156 -4.882812 18.722656 -5.847656 19.265625 -7.171875 C 19.972656 -8.898438 19.878906 -10.507812 18.984375 -12 C 18.097656 -13.488281 16.5 -14.707031 14.1875 -15.65625 C 13.21875 -16.0625 12.09375 -16.398438 10.8125 -16.671875 C 9.539062 -16.953125 8.429688 -17.101562 7.484375 -17.125 L 7.421875 -16.046875 L 8.859375 -15.46875 C 9.222656 -15.3125 9.328125 -15.039062 9.171875 -14.65625 L 4.0625 -2.234375 C 3.75 -1.472656 3.414062 -0.976562 3.0625 -0.75 C 2.71875 -0.519531 2.191406 -0.453125 1.484375 -0.546875 L 0.84375 -0.65625 L 0.8125 0.328125 L 6.3125 2.59375 L 6.796875 2.328125 L 6.671875 1.734375 C 6.484375 0.953125 6.425781 0.226562 6.5 -0.4375 C 6.570312 -1.113281 6.8125 -1.945312 7.21875 -2.9375 L 11.65625 -13.71875 C 11.976562 -14.507812 12.789062 -14.632812 14.09375 -14.09375 C 15.394531 -13.5625 16.269531 -12.75 16.71875 -11.65625 C 17.175781 -10.570312 17.144531 -9.390625 16.625 -8.109375 C 16.125 -6.898438 15.367188 -6.097656 14.359375 -5.703125 C 13.347656 -5.304688 12.226562 -5.363281 11 -5.875 C 10.6875 -6 10.425781 -6.132812 10.21875 -6.28125 C 10.007812 -6.425781 9.894531 -6.503906 9.875 -6.515625 C 9.601562 -6.628906 9.390625 -6.5 9.234375 -6.125 C 9.128906 -5.875 9.195312 -5.601562 9.4375 -5.3125 C 9.925781 -4.875 10.242188 -4.53125 10.390625 -4.28125 C 10.546875 -4.039062 10.632812 -3.738281 10.65625 -3.375 L 10.90625 1.453125 C 10.957031 2.753906 11.144531 3.722656 11.46875 4.359375 C 11.800781 5.003906 12.359375 5.488281 13.140625 5.8125 C 13.953125 6.144531 14.875 6.132812 15.90625 5.78125 Z M 15.90625 5.78125 "/></g></g></g><g fill="#c18f3e" fill-opacity="1"><g transform="translate(159.40658, 287.447171)"><g><path d="M 14.421875 3.59375 L 15.4375 -0.9375 L 14.625 -1.421875 L 14.296875 -0.859375 C 13.835938 0.0234375 13.390625 0.582031 12.953125 0.8125 C 12.515625 1.039062 11.828125 1.050781 10.890625 0.84375 L 8.03125 0.203125 C 7.34375 0.046875 6.914062 -0.175781 6.75 -0.46875 C 6.59375 -0.757812 6.609375 -1.328125 6.796875 -2.171875 L 8 -7.578125 L 10.21875 -7.078125 C 11.195312 -6.859375 11.863281 -6.609375 12.21875 -6.328125 C 12.570312 -6.054688 12.765625 -5.597656 12.796875 -4.953125 L 12.84375 -4.234375 L 13.796875 -4.375 L 14.8125 -8.921875 L 14.359375 -9.3125 L 14.0625 -9.078125 C 13.332031 -8.398438 12.546875 -8.15625 11.703125 -8.34375 L 8.34375 -9.09375 L 9.484375 -14.1875 C 9.660156 -15.007812 9.882812 -15.523438 10.15625 -15.734375 C 10.4375 -15.953125 10.921875 -15.984375 11.609375 -15.828125 L 14.21875 -15.25 C 15.132812 -15.039062 15.738281 -14.738281 16.03125 -14.34375 C 16.332031 -13.945312 16.503906 -13.25 16.546875 -12.25 L 16.546875 -11.578125 L 17.53125 -11.703125 L 18.59375 -16.40625 L 18.265625 -16.859375 L 17.671875 -16.609375 C 17.128906 -16.359375 16.085938 -16.40625 14.546875 -16.75 L 6.453125 -18.5625 L 5.984375 -18.21875 L 6.25 -17.640625 C 6.800781 -16.421875 6.863281 -14.863281 6.4375 -12.96875 L 4.125 -2.59375 C 3.945312 -1.820312 3.710938 -1.304688 3.421875 -1.046875 C 3.140625 -0.796875 2.648438 -0.648438 1.953125 -0.609375 L 1.359375 -0.59375 L 1.5 0.328125 L 12.671875 2.828125 C 13.179688 2.941406 13.523438 3.144531 13.703125 3.4375 L 13.84375 3.78125 Z M 14.421875 3.59375 "/></g></g></g><g fill="#c18f3e" fill-opacity="1"><g transform="translate(177.129458, 291.229465)"><g><path d="M 14.4375 -4.078125 C 14.507812 -5.328125 14.226562 -6.40625 13.59375 -7.3125 C 12.96875 -8.226562 12.1875 -8.953125 11.25 -9.484375 C 10.3125 -10.023438 9.363281 -10.53125 8.40625 -11 C 7.457031 -11.476562 6.660156 -12.039062 6.015625 -12.6875 C 5.378906 -13.34375 5.085938 -14.097656 5.140625 -14.953125 C 5.191406 -15.828125 5.523438 -16.554688 6.140625 -17.140625 C 6.753906 -17.734375 7.601562 -18 8.6875 -17.9375 C 9.695312 -17.875 10.503906 -17.550781 11.109375 -16.96875 C 11.710938 -16.394531 11.988281 -15.691406 11.9375 -14.859375 C 11.90625 -14.429688 11.8125 -14.03125 11.65625 -13.65625 C 11.5 -13.289062 11.34375 -13.015625 11.1875 -12.828125 C 11.039062 -12.640625 10.96875 -12.515625 10.96875 -12.453125 C 10.957031 -12.242188 11.140625 -12.128906 11.515625 -12.109375 C 12.335938 -12.054688 13.039062 -12.304688 13.625 -12.859375 C 14.21875 -13.421875 14.539062 -14.160156 14.59375 -15.078125 C 14.664062 -16.253906 14.15625 -17.242188 13.0625 -18.046875 C 11.96875 -18.859375 10.535156 -19.316406 8.765625 -19.421875 C 6.867188 -19.523438 5.367188 -19.085938 4.265625 -18.109375 C 3.171875 -17.140625 2.578125 -15.9375 2.484375 -14.5 C 2.429688 -13.601562 2.566406 -12.796875 2.890625 -12.078125 C 3.210938 -11.367188 3.648438 -10.785156 4.203125 -10.328125 C 4.753906 -9.878906 5.363281 -9.460938 6.03125 -9.078125 C 6.695312 -8.703125 7.367188 -8.335938 8.046875 -7.984375 C 8.722656 -7.628906 9.335938 -7.257812 9.890625 -6.875 C 10.453125 -6.488281 10.894531 -6.015625 11.21875 -5.453125 C 11.550781 -4.890625 11.695312 -4.253906 11.65625 -3.546875 C 11.59375 -2.585938 11.222656 -1.851562 10.546875 -1.34375 C 9.878906 -0.84375 9.023438 -0.617188 7.984375 -0.671875 C 6.816406 -0.742188 5.890625 -1.097656 5.203125 -1.734375 C 4.523438 -2.378906 4.210938 -3.175781 4.265625 -4.125 C 4.296875 -4.570312 4.394531 -4.972656 4.5625 -5.328125 C 4.726562 -5.691406 4.882812 -5.972656 5.03125 -6.171875 C 5.1875 -6.367188 5.269531 -6.5 5.28125 -6.5625 C 5.289062 -6.769531 5.109375 -6.882812 4.734375 -6.90625 C 3.847656 -6.957031 3.085938 -6.703125 2.453125 -6.140625 C 1.828125 -5.585938 1.488281 -4.847656 1.4375 -3.921875 C 1.363281 -2.628906 1.929688 -1.539062 3.140625 -0.65625 C 4.347656 0.226562 5.9375 0.726562 7.90625 0.84375 C 9.894531 0.957031 11.457031 0.570312 12.59375 -0.3125 C 13.726562 -1.207031 14.34375 -2.460938 14.4375 -4.078125 Z M 14.4375 -4.078125 "/></g></g></g><g fill="#c18f3e" fill-opacity="1"><g transform="translate(194.218542, 292.125035)"><g><path d="M 11.421875 -1.15625 L 11.65625 -2.125 L 10.984375 -2.203125 C 10.273438 -2.347656 9.785156 -2.5625 9.515625 -2.84375 C 9.253906 -3.132812 9.082031 -3.703125 9 -4.546875 L 7.75 -16.78125 C 7.664062 -17.613281 7.671875 -18.171875 7.765625 -18.453125 C 7.867188 -18.734375 8.109375 -18.894531 8.484375 -18.9375 L 9.734375 -19.0625 C 10.671875 -19.15625 11.34375 -19.0625 11.75 -18.78125 C 12.15625 -18.5 12.539062 -17.890625 12.90625 -16.953125 L 13.125 -16.3125 L 14.015625 -16.734375 L 13.53125 -21.53125 L 13.03125 -21.84375 L 12.59375 -21.4375 C 12.164062 -21.039062 11.164062 -20.757812 9.59375 -20.59375 L 2.5625 -19.875 C 1.019531 -19.71875 -0.0195312 -19.796875 -0.5625 -20.109375 L -1.0625 -20.40625 L -1.5 -20 L -1.015625 -15.203125 L -0.03125 -14.984375 L 0.015625 -15.640625 C 0.191406 -16.628906 0.453125 -17.300781 0.796875 -17.65625 C 1.140625 -18.019531 1.785156 -18.253906 2.734375 -18.359375 L 3.953125 -18.484375 C 4.347656 -18.515625 4.613281 -18.398438 4.75 -18.140625 C 4.894531 -17.890625 5.007812 -17.347656 5.09375 -16.515625 L 6.15625 -6.109375 C 6.269531 -5.003906 6.265625 -4.113281 6.140625 -3.4375 C 6.023438 -2.757812 5.773438 -2.113281 5.390625 -1.5 L 5.109375 -0.96875 L 5.484375 -0.5625 Z M 11.421875 -1.15625 "/></g></g></g><g fill="#c18f3e" fill-opacity="1"><g transform="translate(212.078942, 290.283212)"><g><path d="M 4.203125 -18.625 L 8.8125 -12 L 3.890625 -10.578125 Z M 4.703125 -1.34375 L 5.0625 -1.90625 L 4.71875 -2.328125 C 4.363281 -2.671875 4.09375 -3.160156 3.90625 -3.796875 C 3.726562 -4.441406 3.65625 -5.410156 3.6875 -6.703125 L 3.78125 -8.796875 L 9.796875 -10.515625 L 12.09375 -7.21875 C 12.507812 -6.582031 12.734375 -6.195312 12.765625 -6.0625 C 12.941406 -5.46875 12.671875 -4.960938 11.953125 -4.546875 L 11.359375 -4.234375 L 11.90625 -3.421875 L 17.828125 -5.109375 L 18.03125 -5.625 C 17.269531 -5.9375 16.660156 -6.25 16.203125 -6.5625 C 15.753906 -6.882812 15.269531 -7.421875 14.75 -8.171875 L 5.15625 -21.78125 L 0.15625 -20.34375 L 0.0625 -19.34375 L 0.71875 -19.359375 C 1.539062 -19.429688 2.035156 -19.164062 2.203125 -18.5625 C 2.273438 -18.3125 2.300781 -17.859375 2.28125 -17.203125 L 1.5625 -4.203125 C 1.53125 -3.316406 1.40625 -2.679688 1.1875 -2.296875 C 0.96875 -1.910156 0.53125 -1.503906 -0.125 -1.078125 L -0.6875 -0.78125 L -0.09375 0.03125 Z M 4.703125 -1.34375 "/></g></g></g><g fill="#c18f3e" fill-opacity="1"><g transform="translate(232.359929, 284.313143)"><g><path d="M 12.515625 -13.171875 L 8.796875 -20.375 C 7.898438 -22.113281 7.578125 -23.640625 7.828125 -24.953125 L 7.90625 -25.5625 L 7.40625 -25.796875 L 2.8125 -23.421875 L 2.921875 -22.421875 L 3.5625 -22.578125 C 4.28125 -22.742188 4.816406 -22.726562 5.171875 -22.53125 C 5.523438 -22.332031 5.890625 -21.867188 6.265625 -21.140625 L 10.828125 -12.296875 C 11.484375 -11.023438 11.597656 -9.816406 11.171875 -8.671875 C 10.753906 -7.523438 9.941406 -6.640625 8.734375 -6.015625 C 7.503906 -5.378906 6.296875 -5.21875 5.109375 -5.53125 C 3.921875 -5.851562 3 -6.648438 2.34375 -7.921875 L -1.375 -15.125 C -2.257812 -16.84375 -2.59375 -18.359375 -2.375 -19.671875 L -2.296875 -20.28125 L -2.796875 -20.515625 L -8.0625 -17.796875 L -7.984375 -16.78125 L -7.296875 -16.96875 C -6.597656 -17.125 -6.070312 -17.101562 -5.71875 -16.90625 C -5.363281 -16.71875 -5 -16.257812 -4.625 -15.53125 L -0.0625 -6.6875 C 0.914062 -4.78125 2.226562 -3.664062 3.875 -3.34375 C 5.53125 -3.03125 7.304688 -3.363281 9.203125 -4.34375 C 11.054688 -5.289062 12.3125 -6.523438 12.96875 -8.046875 C 13.632812 -9.578125 13.484375 -11.285156 12.515625 -13.171875 Z M 12.515625 -13.171875 "/></g></g></g><g fill="#c18f3e" fill-opacity="1"><g transform="translate(251.713504, 273.977278)"><g><path d="M 12.859375 -10.984375 L 11.984375 -11.3125 C 11.878906 -10.894531 11.6875 -10.578125 11.40625 -10.359375 C 11.050781 -10.085938 10.601562 -10.09375 10.0625 -10.375 L 4.921875 -12.875 C 4.398438 -13.113281 3.832031 -13.222656 3.21875 -13.203125 C 4.113281 -14.328125 4.5625 -15.507812 4.5625 -16.75 C 4.570312 -17.988281 4.140625 -19.171875 3.265625 -20.296875 C 2.109375 -21.765625 0.660156 -22.476562 -1.078125 -22.4375 C -2.816406 -22.40625 -4.671875 -21.617188 -6.640625 -20.078125 C -7.460938 -19.429688 -8.304688 -18.617188 -9.171875 -17.640625 C -10.046875 -16.660156 -10.726562 -15.765625 -11.21875 -14.953125 L -10.296875 -14.375 L -9.09375 -15.328125 C -8.78125 -15.578125 -8.492188 -15.535156 -8.234375 -15.203125 L 0.046875 -4.640625 C 0.554688 -3.992188 0.828125 -3.460938 0.859375 -3.046875 C 0.890625 -2.628906 0.6875 -2.132812 0.25 -1.5625 L -0.15625 -1.0625 L 0.6875 -0.546875 L 5.375 -4.21875 L 5.375 -4.765625 L 4.796875 -4.953125 C 4.023438 -5.171875 3.363281 -5.476562 2.8125 -5.875 C 2.269531 -6.269531 1.671875 -6.890625 1.015625 -7.734375 L -6.1875 -16.90625 C -6.71875 -17.582031 -6.425781 -18.351562 -5.3125 -19.21875 C -4.207031 -20.082031 -3.070312 -20.441406 -1.90625 -20.296875 C -0.738281 -20.160156 0.269531 -19.546875 1.125 -18.453125 C 1.9375 -17.421875 2.265625 -16.367188 2.109375 -15.296875 C 1.953125 -14.234375 1.351562 -13.289062 0.3125 -12.46875 C 0.0507812 -12.257812 -0.191406 -12.097656 -0.421875 -11.984375 C -0.648438 -11.878906 -0.773438 -11.820312 -0.796875 -11.8125 C -1.023438 -11.632812 -1.015625 -11.382812 -0.765625 -11.0625 C -0.597656 -10.84375 -0.332031 -10.765625 0.03125 -10.828125 C 0.65625 -11.035156 1.109375 -11.144531 1.390625 -11.15625 C 1.671875 -11.164062 1.976562 -11.085938 2.3125 -10.921875 L 6.640625 -8.78125 C 7.796875 -8.175781 8.734375 -7.859375 9.453125 -7.828125 C 10.171875 -7.796875 10.863281 -8.039062 11.53125 -8.5625 C 12.21875 -9.101562 12.660156 -9.910156 12.859375 -10.984375 Z M 12.859375 -10.984375 "/></g></g></g><g fill="#c18f3e" fill-opacity="1"><g transform="translate(266.777407, 262.047364)"><g><path d="M -6.5 -17.953125 L 0.9375 -14.859375 L -2.453125 -11.015625 Z M 3.234375 -3.671875 L 3.234375 -4.328125 L 2.71875 -4.515625 C 2.226562 -4.609375 1.734375 -4.875 1.234375 -5.3125 C 0.734375 -5.75 0.15625 -6.519531 -0.5 -7.625 L -1.5625 -9.4375 L 2.578125 -14.140625 L 6.296875 -12.625 C 6.984375 -12.289062 7.378906 -12.082031 7.484375 -12 C 7.953125 -11.582031 7.992188 -11.015625 7.609375 -10.296875 L 7.28125 -9.703125 L 8.1875 -9.296875 L 12.25 -13.921875 L 12.15625 -14.46875 C 11.332031 -14.3125 10.648438 -14.242188 10.109375 -14.265625 C 9.566406 -14.296875 8.867188 -14.488281 8.015625 -14.84375 L -7.421875 -21.109375 L -10.859375 -17.203125 L -10.390625 -16.328125 L -9.84375 -16.703125 C -9.1875 -17.191406 -8.625 -17.234375 -8.15625 -16.828125 C -7.957031 -16.648438 -7.691406 -16.28125 -7.359375 -15.71875 L -0.9375 -4.390625 C -0.5 -3.617188 -0.265625 -3.007812 -0.234375 -2.5625 C -0.210938 -2.113281 -0.367188 -1.539062 -0.703125 -0.84375 L -0.984375 -0.296875 L -0.0625 0.078125 Z M 3.234375 -3.671875 "/></g></g></g><g fill="#c18f3e" fill-opacity="1"><g transform="translate(280.706305, 246.059295)"><g><path d="M 3.1875 -5.578125 L 2.984375 -6.09375 L 2.375 -6.046875 C 1.632812 -5.953125 0.9375 -5.988281 0.28125 -6.15625 C -0.363281 -6.320312 -1.171875 -6.679688 -2.140625 -7.234375 L -10.765625 -12.15625 L 7.71875 -13.515625 L 9.078125 -15.90625 L 8.859375 -16.40625 L 8.265625 -16.375 C 7.785156 -16.332031 7.289062 -16.453125 6.78125 -16.734375 L -3.34375 -22.515625 C -5.019531 -23.472656 -6.128906 -24.570312 -6.671875 -25.8125 L -6.890625 -26.40625 L -7.484375 -26.265625 L -10.015625 -21.828125 L -9.390625 -21.046875 L -8.921875 -21.53125 C -8.410156 -22.050781 -7.953125 -22.328125 -7.546875 -22.359375 C -7.140625 -22.398438 -6.578125 -22.21875 -5.859375 -21.8125 L 4.390625 -15.953125 L -14.171875 -14.5625 L -16.328125 -10.765625 L -15.671875 -10.03125 L -15.234375 -10.484375 C -14.722656 -10.984375 -14.265625 -11.25 -13.859375 -11.28125 C -13.460938 -11.320312 -12.90625 -11.140625 -12.1875 -10.734375 L -1.515625 -4.640625 C -0.773438 -4.210938 -0.320312 -3.828125 -0.15625 -3.484375 C 0 -3.140625 -0.00390625 -2.601562 -0.171875 -1.875 L -0.34375 -1.28125 L 0.625 -1.09375 Z M 3.1875 -5.578125 "/></g></g></g><g fill="#c18f3e" fill-opacity="1"><g transform="translate(291.757569, 225.876923)"><g><path d="M 3.734375 -10.859375 L 2.953125 -11.46875 L 2.609375 -10.890625 C 2.171875 -10.304688 1.765625 -9.953125 1.390625 -9.828125 C 1.023438 -9.710938 0.445312 -9.789062 -0.34375 -10.0625 L -11.984375 -14.0625 C -12.773438 -14.332031 -13.28125 -14.570312 -13.5 -14.78125 C -13.726562 -14.988281 -13.78125 -15.269531 -13.65625 -15.625 L -13.25 -16.828125 C -12.9375 -17.710938 -12.566406 -18.28125 -12.140625 -18.53125 C -11.710938 -18.789062 -10.992188 -18.890625 -9.984375 -18.828125 L -9.3125 -18.75 L -9.328125 -19.75 L -13.890625 -21.3125 L -14.390625 -20.984375 L -14.1875 -20.421875 C -14 -19.859375 -14.160156 -18.832031 -14.671875 -17.34375 L -16.96875 -10.640625 C -17.476562 -9.179688 -17.984375 -8.269531 -18.484375 -7.90625 L -18.984375 -7.59375 L -18.796875 -7.015625 L -14.234375 -5.453125 L -13.609375 -6.234375 L -14.203125 -6.578125 C -15.023438 -7.148438 -15.53125 -7.664062 -15.71875 -8.125 C -15.90625 -8.582031 -15.84375 -9.265625 -15.53125 -10.171875 L -15.125 -11.328125 C -15 -11.703125 -14.785156 -11.898438 -14.484375 -11.921875 C -14.191406 -11.941406 -13.648438 -11.816406 -12.859375 -11.546875 L -2.96875 -8.140625 C -1.914062 -7.785156 -1.109375 -7.414062 -0.546875 -7.03125 C 0.015625 -6.644531 0.5 -6.140625 0.90625 -5.515625 L 1.28125 -5.046875 L 1.796875 -5.21875 Z M 3.734375 -10.859375 "/></g></g></g><g fill="#c18f3e" fill-opacity="1"><g transform="translate(297.131392, 209.303976)"><g/></g></g><g clip-path="url(#91d63351c4)"><g clip-path="url(#6cde5f3b62)"><path fill="#ff3600" d="M 109.160156 109.160156 L 265.839844 109.160156 L 265.839844 265.839844 L 109.160156 265.839844 Z M 109.160156 109.160156 " fill-opacity="1" fill-rule="nonzero"/></g></g><g clip-path="url(#813d6364d8)"><path fill="#ffffff" d="M 155.648438 167.109375 C 153.167969 167.296875 147.117188 168.128906 142.460938 171.871094 C 138.976562 174.675781 136.199219 179.039062 136.179688 185.898438 C 136.160156 192.546875 139.125 196.71875 142.8125 199.367188 C 146.988281 202.359375 152.195312 203.265625 154.921875 203.535156 C 155.460938 205.371094 155.832031 207.6875 155.984375 210.195312 C 156.148438 212.929688 156.050781 215.894531 155.582031 218.761719 L 154.796875 223.515625 L 159.183594 221.519531 C 163.960938 219.324219 172.878906 217.503906 182.242188 217.613281 C 184.59375 217.640625 186.96875 217.804688 189.332031 218.046875 C 190.914062 218.210938 192.476562 218.386719 194.035156 218.625 C 196.042969 218.9375 197.972656 219.300781 199.902344 219.8125 C 201.9375 220.351562 203.847656 220.914062 205.738281 221.78125 C 204.285156 220.3125 202.769531 219.03125 201.015625 217.898438 C 199.28125 216.78125 197.433594 215.898438 195.480469 215.132812 C 193.941406 214.527344 192.359375 214.054688 190.738281 213.675781 C 189.667969 213.421875 188.582031 213.242188 187.488281 213.097656 C 183.347656 212.539062 179.15625 212.535156 175.207031 212.804688 C 169.867188 213.171875 164.964844 214.140625 161.132812 215.324219 C 161.242188 213.472656 161.238281 211.636719 161.128906 209.882812 C 160.890625 205.980469 160.148438 202.488281 159.15625 200.101562 L 158.5 198.515625 L 156.785156 198.515625 C 156.785156 198.515625 150.457031 198.550781 145.769531 195.222656 C 143.207031 193.402344 141.199219 190.5 141.1875 185.898438 C 141.171875 180.945312 143.058594 177.738281 145.558594 175.695312 C 149.023438 172.871094 153.503906 172.128906 155.601562 171.933594 C 155.660156 172.625 155.75 173.3125 155.863281 173.988281 C 156.792969 179.390625 159.394531 183.988281 163.140625 186.265625 C 160.101562 183.519531 158.582031 178.871094 158.535156 173.746094 C 158.496094 169.5625 159.546875 165.117188 161.808594 161.160156 C 163.03125 159.019531 164.640625 157.074219 166.628906 155.378906 C 170.484375 152.085938 175.878906 149.902344 183.1875 149.984375 C 191.097656 150.035156 196.390625 152.433594 199.894531 155.703125 C 206.792969 162.136719 206.796875 171.707031 206.796875 171.707031 L 206.796875 174.878906 L 209.941406 174.5 C 209.941406 174.5 218.203125 173.453125 224.453125 176.878906 C 227.9375 178.789062 230.6875 182.230469 230.710938 188.265625 C 230.757812 194.035156 228.691406 197.371094 225.84375 199.203125 C 223.496094 200.707031 220.734375 201.226562 218.394531 201.449219 C 216.160156 201.660156 214.277344 201.59375 213.410156 201.539062 C 213.535156 201.359375 213.65625 201.175781 213.773438 200.988281 C 214.394531 199.984375 214.878906 198.898438 215.195312 197.738281 C 215.425781 196.890625 215.597656 196.046875 215.640625 195.144531 C 215.730469 193.246094 215.449219 191.371094 214.722656 189.359375 C 214.65625 190.488281 214.457031 191.480469 214.199219 192.496094 C 213.816406 194.027344 213.1875 195.332031 212.453125 196.609375 C 211.972656 197.445312 211.414062 198.191406 210.828125 198.933594 C 210.445312 199.425781 210.035156 199.894531 209.632812 200.367188 C 208.585938 201.589844 207.472656 202.726562 206.15625 203.664062 C 204.039062 205.167969 201.738281 206.308594 199.125 206.738281 C 201.949219 207.203125 204.746094 206.941406 207.382812 205.976562 C 208.316406 205.636719 209.191406 205.1875 210.019531 204.660156 C 209.640625 206.382812 209.445312 208.152344 209.480469 209.996094 C 209.535156 213.351562 210.183594 216.75 210.976562 220.285156 C 211.171875 216.777344 211.558594 213.460938 212.289062 210.292969 C 212.636719 208.785156 213.078125 207.359375 213.664062 206.007812 C 214.863281 206.207031 216.644531 206.410156 218.691406 206.355469 C 221.796875 206.269531 225.449219 205.503906 228.589844 203.582031 C 232.710938 201.058594 236.058594 196.496094 236.125 188.265625 C 236.152344 181.609375 233.703125 177.203125 230.339844 174.253906 C 224.835938 169.429688 216.527344 168.765625 212.171875 168.785156 C 211.609375 164.710938 209.761719 157.191406 203.730469 151.582031 C 199.40625 147.570312 192.945312 144.464844 183.210938 144.441406 C 175.769531 144.449219 169.933594 146.375 165.574219 149.464844 C 164.15625 150.46875 162.886719 151.585938 161.785156 152.816406 C 160.074219 154.730469 158.710938 156.855469 157.730469 159.117188 C 156.613281 161.695312 155.921875 164.414062 155.648438 167.109375 Z M 155.648438 167.109375 " fill-opacity="1" fill-rule="evenodd"/></g><g clip-path="url(#0e870e3f74)"><g clip-path="url(#26c33da664)"><g clip-path="url(#7ef91e7080)"><path fill="#ffffff" d="M 127.332031 161.648438 C 122.46875 161.460938 118.207031 163.058594 114.667969 166.402344 C 112.945312 168.027344 112.507812 170.609375 113.597656 172.683594 L 119.476562 183.84375 C 120.511719 185.804688 122.441406 187.136719 124.640625 187.40625 L 127.414062 187.738281 L 135.148438 208.359375 C 134.820312 208.710938 134.519531 209.121094 134.230469 209.601562 C 134.148438 209.746094 134.121094 209.921875 134.167969 210.085938 L 138.390625 224.777344 C 138.773438 226.132812 139.722656 227.277344 140.984375 227.914062 C 142.246094 228.550781 143.730469 228.632812 145.054688 228.136719 C 146.363281 227.644531 147.351562 226.664062 147.890625 225.480469 C 148.429688 224.296875 148.515625 222.90625 148.023438 221.597656 C 147.972656 221.464844 147.921875 221.347656 147.863281 221.222656 L 141.378906 207.378906 C 141.308594 207.226562 141.175781 207.109375 141.015625 207.058594 C 140.476562 206.882812 139.980469 206.773438 139.503906 206.722656 L 131.765625 186.105469 L 133.640625 184.027344 C 135.117188 182.378906 135.691406 180.105469 135.183594 177.949219 L 132.269531 165.675781 C 131.726562 163.398438 129.699219 161.742188 127.332031 161.648438 Z M 146.753906 221.734375 C 146.796875 221.828125 146.839844 221.925781 146.878906 222.027344 C 147.625 224.019531 146.613281 226.242188 144.625 226.988281 C 143.605469 227.371094 142.507812 227.3125 141.535156 226.820312 C 140.5625 226.332031 139.863281 225.484375 139.566406 224.4375 L 136.59375 214.089844 L 142.1875 211.992188 L 146.753906 221.738281 Z M 141.667969 210.878906 L 136.253906 212.910156 L 135.421875 210.007812 C 135.691406 209.585938 135.972656 209.242188 136.285156 208.953125 C 137.0625 208.210938 137.964844 207.871094 139.046875 207.917969 C 139.464844 207.929688 139.902344 208.003906 140.382812 208.144531 Z M 131.078125 165.960938 L 133.992188 178.234375 C 134.410156 180 133.9375 181.863281 132.730469 183.210938 L 130.609375 185.5625 C 130.457031 185.734375 130.410156 185.972656 130.492188 186.1875 L 138.199219 206.726562 C 138.171875 206.730469 138.144531 206.738281 138.117188 206.742188 C 138.039062 206.753906 137.964844 206.769531 137.890625 206.785156 C 137.792969 206.800781 137.695312 206.820312 137.601562 206.84375 C 137.539062 206.859375 137.476562 206.882812 137.414062 206.898438 C 137.226562 206.957031 137.046875 207.023438 136.867188 207.101562 C 136.800781 207.132812 136.730469 207.160156 136.664062 207.195312 C 136.582031 207.234375 136.503906 207.285156 136.421875 207.332031 C 136.351562 207.371094 136.277344 207.414062 136.207031 207.460938 C 136.183594 207.472656 136.160156 207.484375 136.136719 207.5 L 128.433594 186.957031 C 128.351562 186.746094 128.160156 186.59375 127.933594 186.566406 L 124.789062 186.1875 C 122.988281 185.96875 121.410156 184.878906 120.5625 183.273438 L 114.683594 172.109375 C 113.847656 170.523438 114.1875 168.539062 115.511719 167.289062 C 118.800781 164.179688 122.765625 162.695312 127.285156 162.871094 C 129.105469 162.941406 130.664062 164.210938 131.082031 165.960938 Z M 131.078125 165.960938 " fill-opacity="1" fill-rule="nonzero"/></g></g></g><g clip-path="url(#b0e3f5e181)"><g clip-path="url(#2df6d4e999)"><g clip-path="url(#0a960dfbf7)"><path fill="#ffffff" d="M 123.65625 167.382812 C 123.207031 167.179688 122.707031 167.160156 122.242188 167.335938 C 121.285156 167.695312 120.800781 168.761719 121.160156 169.71875 L 125.097656 180.210938 C 125.269531 180.675781 125.613281 181.042969 126.0625 181.246094 C 126.515625 181.453125 127.015625 181.46875 127.480469 181.292969 C 127.957031 181.117188 128.316406 180.757812 128.515625 180.328125 C 128.710938 179.894531 128.742188 179.390625 128.5625 178.910156 L 124.625 168.417969 C 124.453125 167.953125 124.109375 167.585938 123.65625 167.382812 Z M 123.480469 168.847656 L 127.417969 179.339844 C 127.539062 179.664062 127.371094 180.027344 127.050781 180.148438 C 126.894531 180.207031 126.722656 180.203125 126.570312 180.132812 C 126.417969 180.0625 126.300781 179.9375 126.242188 179.78125 L 122.304688 169.289062 C 122.246094 169.125 122.253906 168.953125 122.320312 168.808594 C 122.386719 168.664062 122.511719 168.542969 122.671875 168.480469 C 122.828125 168.421875 123 168.425781 123.152344 168.496094 C 123.304688 168.566406 123.421875 168.691406 123.480469 168.847656 Z M 123.480469 168.847656 " fill-opacity="1" fill-rule="nonzero"/></g></g></g><g clip-path="url(#fdef2e4fa9)"><g clip-path="url(#02d1d1b243)"><g clip-path="url(#8b27b0feb6)"><path fill="#ffffff" d="M 125.34375 168.148438 L 127.09375 172.816406 C 127.265625 173.277344 127.609375 173.644531 128.0625 173.851562 C 128.511719 174.054688 129.015625 174.074219 129.476562 173.898438 C 129.957031 173.71875 130.316406 173.363281 130.511719 172.929688 C 130.707031 172.5 130.738281 171.992188 130.558594 171.515625 L 128.808594 166.847656 C 128.636719 166.386719 128.292969 166.019531 127.839844 165.8125 C 127.390625 165.609375 126.890625 165.589844 126.425781 165.765625 C 125.46875 166.125 124.984375 167.195312 125.34375 168.148438 Z M 127.664062 167.277344 L 129.414062 171.945312 C 129.535156 172.269531 129.371094 172.628906 129.046875 172.753906 C 128.890625 172.8125 128.71875 172.804688 128.566406 172.734375 C 128.414062 172.667969 128.296875 172.542969 128.238281 172.386719 L 126.488281 167.71875 C 126.429688 167.554688 126.4375 167.386719 126.503906 167.238281 C 126.570312 167.09375 126.691406 166.972656 126.855469 166.910156 C 127.011719 166.851562 127.183594 166.859375 127.335938 166.925781 C 127.488281 166.996094 127.601562 167.121094 127.664062 167.277344 Z M 127.664062 167.277344 " fill-opacity="1" fill-rule="nonzero"/></g></g></g><g clip-path="url(#0379285740)"><g clip-path="url(#52447e9d72)"><g clip-path="url(#7d24349372)"><path fill="#ffffff" d="M 122.144531 176.070312 C 122.339844 175.636719 122.371094 175.132812 122.195312 174.652344 L 120.441406 169.988281 C 120.269531 169.523438 119.925781 169.15625 119.476562 168.953125 C 119.023438 168.746094 118.523438 168.730469 118.058594 168.902344 C 117.101562 169.261719 116.617188 170.332031 116.976562 171.285156 L 118.726562 175.953125 C 118.902344 176.417969 119.246094 176.785156 119.695312 176.988281 C 120.144531 177.195312 120.648438 177.210938 121.109375 177.035156 C 121.589844 176.859375 121.949219 176.5 122.144531 176.070312 Z M 119.875 175.523438 L 118.121094 170.855469 C 118.0625 170.695312 118.074219 170.523438 118.140625 170.378906 C 118.207031 170.230469 118.328125 170.109375 118.488281 170.050781 C 118.644531 169.992188 118.816406 169.996094 118.96875 170.066406 C 119.121094 170.136719 119.238281 170.261719 119.296875 170.417969 L 121.046875 175.085938 C 121.167969 175.40625 121.003906 175.769531 120.683594 175.890625 C 120.523438 175.949219 120.355469 175.945312 120.203125 175.875 C 120.046875 175.804688 119.933594 175.679688 119.875 175.523438 Z M 119.875 175.523438 " fill-opacity="1" fill-rule="nonzero"/></g></g></g><g clip-path="url(#75573e1c8a)"><g clip-path="url(#bc3d3a15e7)"><g clip-path="url(#ad39d9ef00)"><path fill="#ffffff" d="M 140.894531 224.054688 C 141.371094 225.328125 142.792969 225.972656 144.0625 225.496094 C 144.699219 225.257812 145.179688 224.785156 145.441406 224.207031 C 145.699219 223.632812 145.742188 222.960938 145.503906 222.324219 C 145.027344 221.054688 143.605469 220.40625 142.332031 220.886719 C 141.0625 221.363281 140.417969 222.785156 140.894531 224.054688 Z M 144.359375 222.753906 C 144.597656 223.394531 144.273438 224.109375 143.632812 224.351562 C 142.992188 224.589844 142.277344 224.265625 142.039062 223.625 C 141.917969 223.304688 141.941406 222.96875 142.070312 222.679688 C 142.203125 222.390625 142.441406 222.152344 142.761719 222.03125 C 143.402344 221.789062 144.117188 222.117188 144.359375 222.753906 Z M 144.359375 222.753906 " fill-opacity="1" fill-rule="nonzero"/></g></g></g><g clip-path="url(#d7d79ab540)"><g clip-path="url(#02effa149a)"><g clip-path="url(#c1127d7789)"><path fill="#ffffff" d="M 252.902344 172.226562 L 251.394531 176.992188 C 251.242188 177.464844 251.285156 177.964844 251.515625 178.402344 C 251.742188 178.84375 252.128906 179.167969 252.597656 179.316406 C 253.070312 179.464844 253.570312 179.421875 254.011719 179.195312 C 254.449219 178.964844 254.773438 178.582031 254.921875 178.109375 L 256.429688 173.34375 C 256.738281 172.371094 256.199219 171.328125 255.222656 171.019531 C 254.25 170.710938 253.207031 171.253906 252.898438 172.226562 Z M 255.269531 172.976562 L 253.761719 177.742188 C 253.660156 178.0625 253.289062 178.257812 252.96875 178.152344 C 252.804688 178.101562 252.675781 177.992188 252.597656 177.84375 C 252.519531 177.691406 252.503906 177.523438 252.554688 177.359375 L 254.0625 172.597656 C 254.117188 172.429688 254.230469 172.300781 254.375 172.226562 C 254.519531 172.152344 254.691406 172.132812 254.855469 172.183594 C 255.191406 172.289062 255.375 172.644531 255.269531 172.976562 Z M 255.269531 172.976562 " fill-opacity="1" fill-rule="nonzero"/></g></g></g><g clip-path="url(#7e980f8243)"><g clip-path="url(#078a0effe4)"><g clip-path="url(#018f7e5c9f)"><path fill="#ffffff" d="M 244.019531 174.660156 L 245.527344 169.894531 C 245.835938 168.917969 245.292969 167.878906 244.320312 167.570312 C 243.347656 167.261719 242.304688 167.800781 241.996094 168.777344 L 240.488281 173.542969 C 240.179688 174.515625 240.722656 175.554688 241.695312 175.863281 C 242.183594 176.019531 242.6875 175.960938 243.105469 175.742188 C 243.527344 175.523438 243.863281 175.144531 244.019531 174.660156 Z M 241.652344 173.910156 L 243.160156 169.144531 C 243.265625 168.8125 243.621094 168.625 243.953125 168.730469 C 244.285156 168.835938 244.46875 169.191406 244.363281 169.527344 L 242.855469 174.289062 C 242.75 174.621094 242.394531 174.808594 242.0625 174.703125 C 241.730469 174.597656 241.546875 174.242188 241.652344 173.910156 Z M 241.652344 173.910156 " fill-opacity="1" fill-rule="nonzero"/></g></g></g><g clip-path="url(#8f64f3a3d3)"><g clip-path="url(#ebcff6b796)"><g clip-path="url(#b8522a8228)"><path fill="#ffffff" d="M 230.320312 222.59375 C 229.910156 223.890625 230.628906 225.277344 231.925781 225.6875 C 232.554688 225.886719 233.21875 225.828125 233.804688 225.523438 C 234.390625 225.222656 234.820312 224.710938 235.019531 224.082031 C 235.21875 223.453125 235.160156 222.785156 234.855469 222.203125 C 234.554688 221.617188 234.039062 221.1875 233.414062 220.988281 C 232.117188 220.578125 230.730469 221.300781 230.320312 222.59375 Z M 233.855469 223.714844 C 233.65625 224.347656 232.925781 224.726562 232.292969 224.527344 C 231.636719 224.316406 231.273438 223.617188 231.480469 222.960938 C 231.585938 222.632812 231.8125 222.378906 232.09375 222.234375 C 232.378906 222.085938 232.714844 222.046875 233.042969 222.148438 C 233.363281 222.25 233.621094 222.46875 233.773438 222.761719 C 233.925781 223.058594 233.957031 223.394531 233.855469 223.714844 Z M 233.855469 223.714844 " fill-opacity="1" fill-rule="nonzero"/></g></g></g><g clip-path="url(#97649b29e8)"><g clip-path="url(#5fad70bd82)"><g clip-path="url(#e9fea1e107)"><path fill="#ffffff" d="M 252.730469 161.761719 C 249.625 160.625 246.285156 160.800781 243.324219 162.253906 C 240.347656 163.703125 238.183594 166.246094 237.1875 169.390625 C 236.039062 173.019531 236.652344 176.875 238.867188 179.972656 C 241.109375 183.101562 241.765625 186.875 240.675781 190.324219 L 235.503906 206.664062 C 235.027344 206.738281 234.535156 206.871094 234.011719 207.074219 C 233.855469 207.136719 233.726562 207.257812 233.664062 207.414062 L 227.898438 221.613281 C 227.363281 222.921875 227.402344 224.40625 228.003906 225.691406 C 228.605469 226.972656 229.722656 227.953125 231.074219 228.378906 C 232.410156 228.804688 233.792969 228.644531 234.949219 228.042969 C 236.105469 227.441406 237.03125 226.402344 237.457031 225.066406 C 237.496094 224.933594 237.527344 224.804688 237.5625 224.671875 L 241.015625 209.742188 C 241.054688 209.578125 241.023438 209.40625 240.929688 209.265625 C 240.613281 208.792969 240.285156 208.398438 239.941406 208.066406 L 245.109375 191.734375 C 246.226562 188.214844 248.882812 185.476562 252.222656 184.414062 C 256.011719 183.210938 258.945312 180.21875 260.078125 176.410156 C 261.847656 170.464844 258.550781 163.894531 252.730469 161.761719 Z M 236.375 224.390625 C 236.351562 224.492188 236.328125 224.59375 236.292969 224.699219 C 235.652344 226.730469 233.472656 227.863281 231.441406 227.21875 C 230.398438 226.890625 229.570312 226.164062 229.109375 225.171875 C 228.644531 224.183594 228.613281 223.082031 229.027344 222.070312 L 233.089844 212.066406 L 238.808594 213.878906 Z M 239.085938 212.6875 L 233.550781 210.933594 L 234.691406 208.121094 C 235.167969 207.957031 235.605469 207.859375 236.03125 207.824219 C 237.105469 207.722656 238.023438 208.011719 238.851562 208.722656 C 239.175781 208.988281 239.476562 209.320312 239.769531 209.730469 Z M 258.910156 176.0625 C 257.894531 179.480469 255.257812 182.167969 251.855469 183.25 C 248.136719 184.433594 245.183594 187.46875 243.949219 191.363281 L 238.917969 207.265625 C 238.894531 207.253906 238.875 207.246094 238.855469 207.234375 C 238.761719 207.183594 238.671875 207.136719 238.578125 207.089844 C 238.511719 207.054688 238.449219 207.019531 238.382812 206.992188 C 238.253906 206.933594 238.117188 206.882812 237.980469 206.835938 C 237.917969 206.816406 237.855469 206.796875 237.792969 206.777344 C 237.664062 206.742188 237.53125 206.707031 237.398438 206.679688 C 237.328125 206.664062 237.253906 206.65625 237.183594 206.648438 C 237.082031 206.632812 236.980469 206.617188 236.875 206.605469 C 236.851562 206.605469 236.828125 206.597656 236.800781 206.597656 L 241.835938 190.691406 C 243.046875 186.875 242.324219 182.707031 239.859375 179.265625 C 237.867188 176.480469 237.316406 173.015625 238.347656 169.757812 C 239.242188 166.933594 241.210938 164.65625 243.863281 163.347656 C 246.519531 162.042969 249.523438 161.886719 252.3125 162.90625 C 257.539062 164.820312 260.5 170.722656 258.914062 176.0625 Z M 258.910156 176.0625 " fill-opacity="1" fill-rule="nonzero"/></g></g></g><g clip-path="url(#6854aaacec)"><g clip-path="url(#1ad2853048)"><g clip-path="url(#82ae0d8f1b)"><path fill="#ffffff" d="M 251.867188 167.289062 C 251.625 166.824219 251.214844 166.480469 250.714844 166.320312 C 249.679688 165.996094 248.574219 166.570312 248.246094 167.601562 L 244.925781 178.097656 C 244.597656 179.132812 245.171875 180.238281 246.207031 180.566406 C 246.722656 180.726562 247.257812 180.667969 247.703125 180.433594 C 248.152344 180.203125 248.507812 179.800781 248.671875 179.285156 L 251.996094 168.789062 C 252.152344 168.289062 252.105469 167.757812 251.867188 167.289062 Z M 250.832031 168.421875 L 247.511719 178.914062 C 247.386719 179.308594 246.96875 179.527344 246.574219 179.402344 C 246.179688 179.277344 245.960938 178.855469 246.085938 178.464844 L 249.410156 167.96875 C 249.53125 167.578125 249.953125 167.359375 250.347656 167.484375 C 250.535156 167.542969 250.691406 167.675781 250.785156 167.851562 C 250.875 168.03125 250.894531 168.230469 250.832031 168.421875 Z M 250.832031 168.421875 " fill-opacity="1" fill-rule="nonzero"/></g></g></g><g clip-path="url(#3960b03ac0)"><path fill="#fd5123" d="M 95.128906 189.539062 C 95.128906 189.867188 95.097656 190.1875 95.035156 190.507812 C 94.972656 190.828125 94.875 191.140625 94.753906 191.441406 C 94.628906 191.742188 94.472656 192.027344 94.292969 192.300781 C 94.113281 192.570312 93.90625 192.824219 93.675781 193.054688 C 93.445312 193.285156 93.191406 193.488281 92.921875 193.671875 C 92.652344 193.851562 92.363281 194.003906 92.0625 194.128906 C 91.761719 194.253906 91.449219 194.347656 91.128906 194.414062 C 90.8125 194.476562 90.488281 194.507812 90.160156 194.507812 C 89.835938 194.507812 89.511719 194.476562 89.191406 194.414062 C 88.871094 194.347656 88.5625 194.253906 88.261719 194.128906 C 87.957031 194.003906 87.671875 193.851562 87.402344 193.671875 C 87.128906 193.488281 86.878906 193.285156 86.648438 193.054688 C 86.417969 192.824219 86.210938 192.570312 86.03125 192.300781 C 85.847656 192.027344 85.695312 191.742188 85.570312 191.441406 C 85.445312 191.140625 85.351562 190.828125 85.289062 190.507812 C 85.222656 190.1875 85.191406 189.867188 85.191406 189.539062 C 85.191406 189.214844 85.222656 188.890625 85.289062 188.570312 C 85.351562 188.25 85.445312 187.941406 85.570312 187.636719 C 85.695312 187.335938 85.847656 187.050781 86.03125 186.78125 C 86.210938 186.507812 86.417969 186.257812 86.648438 186.027344 C 86.878906 185.796875 87.128906 185.589844 87.402344 185.410156 C 87.671875 185.226562 87.957031 185.074219 88.261719 184.949219 C 88.5625 184.824219 88.871094 184.730469 89.191406 184.667969 C 89.511719 184.601562 89.835938 184.570312 90.160156 184.570312 C 90.488281 184.570312 90.8125 184.601562 91.128906 184.667969 C 91.449219 184.730469 91.761719 184.824219 92.0625 184.949219 C 92.363281 185.074219 92.652344 185.226562 92.921875 185.410156 C 93.191406 185.589844 93.445312 185.796875 93.675781 186.027344 C 93.90625 186.257812 94.113281 186.507812 94.292969 186.78125 C 94.472656 187.050781 94.628906 187.335938 94.753906 187.636719 C 94.875 187.941406 94.972656 188.25 95.035156 188.570312 C 95.097656 188.890625 95.128906 189.214844 95.128906 189.539062 Z M 95.128906 189.539062 " fill-opacity="1" fill-rule="nonzero"/></g><g clip-path="url(#ea0f44a1e0)"><path fill="#fd5123" d="M 295.898438 189.539062 C 295.898438 189.867188 295.867188 190.1875 295.800781 190.507812 C 295.738281 190.828125 295.644531 191.140625 295.519531 191.441406 C 295.394531 191.742188 295.242188 192.027344 295.058594 192.300781 C 294.878906 192.570312 294.671875 192.824219 294.441406 193.054688 C 294.210938 193.285156 293.960938 193.488281 293.6875 193.671875 C 293.417969 193.851562 293.132812 194.003906 292.828125 194.128906 C 292.527344 194.253906 292.21875 194.347656 291.898438 194.414062 C 291.578125 194.476562 291.253906 194.507812 290.929688 194.507812 C 290.601562 194.507812 290.277344 194.476562 289.960938 194.414062 C 289.640625 194.347656 289.328125 194.253906 289.027344 194.128906 C 288.726562 194.003906 288.4375 193.851562 288.167969 193.671875 C 287.898438 193.488281 287.644531 193.285156 287.414062 193.054688 C 287.183594 192.824219 286.976562 192.570312 286.796875 192.300781 C 286.617188 192.027344 286.464844 191.742188 286.339844 191.441406 C 286.214844 191.140625 286.117188 190.828125 286.054688 190.507812 C 285.992188 190.1875 285.960938 189.867188 285.960938 189.539062 C 285.960938 189.214844 285.992188 188.890625 286.054688 188.570312 C 286.117188 188.25 286.214844 187.941406 286.339844 187.636719 C 286.464844 187.335938 286.617188 187.050781 286.796875 186.78125 C 286.976562 186.507812 287.183594 186.257812 287.414062 186.027344 C 287.644531 185.796875 287.898438 185.589844 288.167969 185.410156 C 288.4375 185.226562 288.726562 185.074219 289.027344 184.949219 C 289.328125 184.824219 289.640625 184.730469 289.960938 184.667969 C 290.277344 184.601562 290.601562 184.570312 290.929688 184.570312 C 291.253906 184.570312 291.578125 184.601562 291.898438 184.667969 C 292.21875 184.730469 292.527344 184.824219 292.828125 184.949219 C 293.132812 185.074219 293.417969 185.226562 293.6875 185.410156 C 293.960938 185.589844 294.210938 185.796875 294.441406 186.027344 C 294.671875 186.257812 294.878906 186.507812 295.058594 186.78125 C 295.242188 187.050781 295.394531 187.335938 295.519531 187.636719 C 295.644531 187.941406 295.738281 188.25 295.800781 188.570312 C 295.867188 188.890625 295.898438 189.214844 295.898438 189.539062 Z M 295.898438 189.539062 " fill-opacity="1" fill-rule="nonzero"/></g></svg>